PathFileType	4	(X/Y/Z)	/Users/itak/Documents/Research/Walk-IL/dataset/trc/00327_00011.trc
DataRate	CameraRate	NumFrames	NumMarkers	Units	OrigDataRate	OrigDataStartFrame	OrigNumFrames
100.000000	100.000000	4	53	mm	100.000000	0	555
Frame#	Time	RPSI			LPSI			L3			STRN			T10			C7			CLAV			RBAK			LBAK			LSHO			LUPA			LAEL			LAOL			LWTS			LWPS			LFRA			LIFD			LHPS			LHTS			RSHO			RUPA			RAEL			RAOL			RWTS			RWPS			RFRA			RIFD			RHTS			RHPS			RBHD			LFHD			RFHD			LBHD			LHIP			RHIP			RASI			LASI			LKNE			LTHI			LANK			LTIP			LTOE			LMT1			LMT5			LHEE			RKNE			RTHI			RANK			RTIP			RTOE			RMT1			RMT5			RHEE			
		X1	Y1	Z1	X2	Y2	Z2	X3	Y3	Z3	X4	Y4	Z4	X5	Y5	Z5	X6	Y6	Z6	X7	Y7	Z7	X8	Y8	Z8	X9	Y9	Z9	X10	Y10	Z10	X11	Y11	Z11	X12	Y12	Z12	X13	Y13	Z13	X14	Y14	Z14	X15	Y15	Z15	X16	Y16	Z16	X17	Y17	Z17	X18	Y18	Z18	X19	Y19	Z19	X20	Y20	Z20	X21	Y21	Z21	X22	Y22	Z22	X23	Y23	Z23	X24	Y24	Z24	X25	Y25	Z25	X26	Y26	Z26	X27	Y27	Z27	X28	Y28	Z28	X29	Y29	Z29	X30	Y30	Z30	X31	Y31	Z31	X32	Y32	Z32	X33	Y33	Z33	X34	Y34	Z34	X35	Y35	Z35	X36	Y36	Z36	X37	Y37	Z37	X38	Y38	Z38	X39	Y39	Z39	X40	Y40	Z40	X41	Y41	Z41	X42	Y42	Z42	X43	Y43	Z43	X44	Y44	Z44	X45	Y45	Z45	X46	Y46	Z46	X47	Y47	Z47	X48	Y48	Z48	X49	Y49	Z49	X50	Y50	Z50	X51	Y51	Z51	X52	Y52	Z52	X53	Y53	Z53	

1	0	926.6619262695312	976.4918212890625	225.6672058105469	928.1900024414062	975.8041381835938	97.25197601318359	921.0060424804688	1033.924194335938	168.7864227294922	1153.612060546875	1209.747680664062	149.0458068847656	911.9522094726562	1153.903686523438	159.4160461425781	949.078369140625	1400.757568359375	137.5402679443359	1107.0966796875	1332.542358398438	141.2982330322266	900.2197265625	1265.869140625	214.6268310546875	941.0945434570312	1358.85546875	35.66349029541016	1028.322631835938	1373.540893554688	-20.50606536865234	1017.294189453125	1252.044189453125	-87.57205963134766	1044.480590820312	1047.976806640625	-90.05072021484375	972.2219848632812	1034.537353515625	-47.33666229248047	1132.666137695312	807.25390625	-16.24837112426758	1109.01318359375	796.0511474609375	-80.59614562988281	1063.60107421875	943.9305419921875	-90.00497436523438	1131.78515625	647.3248291015625	-9.327450752258301	1103.719116210938	726.0299682617188	-75.73793792724609	1147.448120117188	728.6444702148438	-28.51143836975098	1020.116760253906	1382.420654296875	297.293701171875	1015.601867675781	1319.7822265625	366.5245666503906	1025.164306640625	1052.582397460938	408.1482543945312	959.4004516601562	1041.141967773438	336.7081909179688	1119.026489257812	824.0079956054688	338.4041748046875	1102.734252929688	811.38232421875	412.299072265625	1050.626342773438	984.43896484375	409.1988525390625	1135.616455078125	653.2601928710938	347.4878845214844	1156.270141601562	725.6680297851562	349.3122253417969	1120.845336914062	727.689697265625	409.9920654296875	968.4287719726562	1591.279418945312	221.0687408447266	1135.947631835938	1627.8017578125	102.0995330810547	1125.878173828125	1626.691162109375	203.0989227294922	956.2271728515625	1583.595703125	76.82975006103516	1010.107543945312	912.6355590820312	-6.514632225036621	1005.279174804688	917.0838623046875	333.9498291015625	1110.607421875	943.7759399414062	292.1502380371094	1132.047973632812	934.7913818359375	52.23087692260742	1023.87841796875	453.466552734375	7.207724571228027	1039.028930664062	591.4989624023438	-3.576040029525757	935.18505859375	39.21950912475586	14.32458591461182	977.8632202148438	240.5050048828125	-2.69802451133728	1142.267333984375	32.10043716430664	68.58306121826172	1072.824584960938	19.94847297668457	112.7156600952148	1060.449584960938	33.45635223388672	-0.247220054268837	900.7784423828125	32.33602523803711	81.43426513671875	1004.946472167969	453.2563781738281	317.3458251953125	1060.682739257812	708.4540405273438	339.9759216308594	946.4041748046875	42.19394302368164	294.8812561035156	1006.8662109375	336.9607238769531	309.5340576171875	1139.902465820312	32.74996566772461	241.93505859375	1083.07080078125	27.44680404663086	201.1029205322266	1047.932373046875	29.37302017211914	313.4283752441406	894.708740234375	41.56816101074219	247.7979888916016	
2	0.01	926.6444091796875	976.4766845703125	225.6865844726562	927.9674072265625	975.7695922851562	97.20236968994141	920.9005737304688	1033.924682617188	168.7775421142578	1153.470458984375	1209.729370117188	149.0740966796875	911.81005859375	1153.91064453125	159.4407653808594	948.96240234375	1400.747924804688	137.5560607910156	1107.028564453125	1332.567138671875	141.2799072265625	900.08642578125	1265.848510742188	214.6535339355469	940.9522705078125	1358.888549804688	35.72694396972656	1028.116577148438	1373.545043945312	-20.45635223388672	1017.067077636719	1252.070434570312	-87.55575561523438	1044.3466796875	1048.05224609375	-90.18080902099609	972.0347900390625	1034.5283203125	-47.41529083251953	1132.812622070312	807.4362182617188	-16.35428810119629	1109.101684570312	796.160400390625	-80.68881988525391	1063.48046875	943.9650268554688	-90.15120697021484	1132.15234375	647.3829956054688	-9.199617385864258	1103.996459960938	726.2540283203125	-75.80229187011719	1147.707763671875	728.803466796875	-28.57686996459961	1020.017272949219	1382.430053710938	297.2618713378906	1015.501770019531	1319.778198242188	366.5481567382812	1025.13525390625	1052.651489257812	408.3164367675781	959.3240966796875	1041.104125976562	336.7930297851562	1118.966918945312	823.9840087890625	338.6476135253906	1102.797729492188	811.4823608398438	412.5445556640625	1050.581909179688	984.4569091796875	409.2989196777344	1135.73291015625	653.3704833984375	347.8672485351562	1156.27392578125	725.7334594726562	349.6515197753906	1120.937133789062	727.8390502929688	410.3318786621094	968.2979125976562	1591.270751953125	221.0875549316406	1135.801879882812	1627.81640625	102.0036926269531	1125.787109375	1626.734497070312	203.0233459472656	956.0484008789062	1583.556762695312	76.87693786621094	1009.867553710938	912.6282348632812	-6.580294609069824	1005.18017578125	917.083251953125	333.9331359863281	1110.48291015625	943.8499755859375	292.1278991699219	1131.885620117188	934.7636108398438	52.23343658447266	1023.870239257812	453.4749755859375	7.212559700012207	1039.041381835938	591.4795532226562	-3.550912857055664	935.1859741210938	39.22012329101562	14.32897281646729	977.8724365234375	240.4915161132812	-2.684171438217163	1142.272216796875	32.11018371582031	68.58042144775391	1072.82421875	19.9484977722168	112.71533203125	1060.44775390625	33.46377182006836	-0.2347216308116913	900.7875366210938	32.32976531982422	81.43975067138672	1004.950439453125	453.2434692382812	317.3680725097656	1060.538818359375	708.4876708984375	339.9470825195312	946.4002685546875	42.19587707519531	294.8777465820312	1006.850769042969	336.957275390625	309.5171508789062	1139.89794921875	32.75247192382812	241.9416198730469	1083.0673828125	27.44937133789062	201.1044311523438	1047.960083007812	29.42641448974609	313.4109497070312	894.7161865234375	41.55806732177734	247.7979278564453	
3	0.02	926.6189575195312	976.4605102539062	225.7063751220703	927.7074584960938	975.7314453125	97.14633941650391	920.7606811523438	1033.928344726562	168.7631988525391	1153.286743164062	1209.697875976562	149.1176910400391	911.6106567382812	1153.920654296875	159.4665374755859	948.8027954101562	1400.736083984375	137.5794982910156	1106.928588867188	1332.592163085938	141.2707214355469	899.9149169921875	1265.82421875	214.6859588623047	940.7774047851562	1358.92919921875	35.80340576171875	1027.870361328125	1373.559326171875	-20.39072418212891	1016.780090332031	1252.11083984375	-87.53811645507812	1044.17236328125	1048.14453125	-90.34549713134766	971.8038330078125	1034.530395507812	-47.52228164672852	1132.98388671875	807.6725463867188	-16.49097061157227	1109.20263671875	796.2965087890625	-80.79619598388672	1063.336181640625	944.0147705078125	-90.32997894287109	1132.60498046875	647.4996948242188	-9.061081886291504	1104.32080078125	726.4848022460938	-75.8487548828125	1148.019653320312	729.0196533203125	-28.67096710205078	1019.884887695312	1382.435913085938	297.2283020019531	1015.367309570312	1319.77294921875	366.5783081054688	1025.08544921875	1052.70849609375	408.4691772460938	959.2352294921875	1041.067260742188	336.8930969238281	1118.896728515625	823.9580688476562	338.9381408691406	1102.85009765625	811.591796875	412.8143310546875	1050.5205078125	984.4862670898438	409.416015625	1135.887817382812	653.488037109375	348.3460388183594	1156.28564453125	725.7979736328125	350.0748596191406	1121.01611328125	728.0021362304688	410.7236633300781	968.1322021484375	1591.263427734375	221.1113586425781	1135.620849609375	1627.828369140625	101.9058456420898	1125.6728515625	1626.787353515625	202.9297332763672	955.8184204101562	1583.509399414062	76.93387603759766	1009.588500976562	912.621337890625	-6.653814315795898	1005.037170410156	917.0908813476562	333.9212036132812	1110.330322265625	943.9393310546875	292.086181640625	1131.6845703125	934.738037109375	52.22568893432617	1023.857666015625	453.482421875	7.218907833099365	1039.056030273438	591.4542236328125	-3.517118692398071	935.1871948242188	39.22136688232422	14.33470058441162	977.8785400390625	240.4751892089844	-2.669759511947632	1142.276245117188	32.11859512329102	68.57839202880859	1072.823974609375	19.94736862182617	112.7157516479492	1060.445922851562	33.47115325927734	-0.2202518880367279	900.7979125976562	32.3211784362793	81.44761657714844	1004.944091796875	453.2308349609375	317.3848571777344	1060.358764648438	708.525634765625	339.9106750488281	946.3975219726562	42.19704437255859	294.8751831054688	1006.830383300781	336.9553527832031	309.5003662109375	1139.893920898438	32.75498199462891	241.9468994140625	1083.064575195312	27.45152473449707	201.1055755615234	1047.989868164062	29.48350524902344	313.3923034667969	894.7221069335938	41.54632568359375	247.79736328125	
4	0.03	926.5803833007812	976.44482421875	225.7225952148438	927.4326171875	975.6942749023438	97.08934783935547	920.5881958007812	1033.936157226562	168.7415466308594	1153.066650390625	1209.65234375	149.1771697998047	911.352783203125	1153.93408203125	159.4881439208984	948.6004028320312	1400.722045898438	137.6122283935547	1106.79296875	1332.613647460938	141.278564453125	899.7118530273438	1265.798828125	214.7220306396484	940.57861328125	1358.9755859375	35.88756561279297	1027.599975585938	1373.587036132812	-20.3106575012207	1016.447814941406	1252.167358398438	-87.52072906494141	1043.961181640625	1048.247802734375	-90.53726196289062	971.5428466796875	1034.549682617188	-47.65555191040039	1133.167724609375	807.958740234375	-16.65599250793457	1109.306396484375	796.4515380859375	-80.90935516357422	1063.177978515625	944.080322265625	-90.53038024902344	1133.122436523438	647.6878662109375	-8.926565170288086	1104.667724609375	726.6964111328125	-75.86491394042969	1148.366455078125	729.2927856445312	-28.7933464050293	1019.718505859375	1382.434692382812	297.1992797851562	1015.199890136719	1319.766235351562	366.6141967773438	1025.012084960938	1052.741821289062	408.5836181640625	959.1383056640625	1041.037353515625	337.0032653808594	1118.822021484375	823.9356689453125	339.2527160644531	1102.88037109375	811.6987915039062	413.0829772949219	1050.441528320312	984.5276489257812	409.5409851074219	1136.069580078125	653.5943603515625	348.8977355957031	1156.3046875	725.8489379882812	350.5558471679688	1121.065185546875	728.1622314453125	411.1370239257812	967.938232421875	1591.26025390625	221.1390838623047	1135.411010742188	1627.833740234375	101.8200988769531	1125.538940429688	1626.845947265625	202.8234710693359	955.546630859375	1583.457153320312	76.99619293212891	1009.287353515625	912.6167602539062	-6.72892951965332	1004.853454589844	917.1066284179688	333.914794921875	1110.155029296875	944.036865234375	292.0242919921875	1131.453979492188	934.719482421875	52.20539474487305	1023.839416503906	453.4872131347656	7.226566314697266	1039.071044921875	591.4237060546875	-3.475313901901245	935.188232421875	39.22321319580078	14.34127998352051	977.87939453125	240.4569091796875	-2.656228065490723	1142.278686523438	32.12386703491211	68.57752990722656	1072.823608398438	19.94523048400879	112.7169799804688	1060.444580078125	33.47773361206055	-0.2054968327283859	900.80859375	32.3104248046875	81.45734405517578	1004.924194335938	453.2203063964844	317.393798828125	1060.15234375	708.566162109375	339.8706970214844	946.3966064453125	42.19712066650391	294.8740539550781	1006.805725097656	336.9554138183594	309.4852600097656	1139.890991210938	32.75704193115234	241.9498748779297	1083.0625	27.45303344726562	201.1063385009766	1048.017456054688	29.53662872314453	313.3748474121094	894.724853515625	41.533447265625	247.7959594726562	
